<svg xmlns="http://www.w3.org/2000/svg" xmlns:xlink="http://www.w3.org/1999/xlink" version="1.1" width="32pt" height="32pt" viewBox="0 0 32 32">
<path transform="matrix(1,0,0,-1,4,28)" d="M6 24C6.36819 24 6.666667 23.701523 6.666667 23.333334 6.666667 22.965144 6.36819 22.666666 6 22.666666H3.333333C2.228764 22.666666 1.333333 21.771237 1.333333 20.666666V17.958495C1.333333 17.590306 1.034857 17.291829 .666667 17.291829 .298477 17.291829 0 17.590306 0 17.958495V20.666666C0 22.507616 1.492384 24 3.333333 24H6ZM18 22.666666C17.631812 22.666666 17.333334 22.965144 17.333334 23.333334 17.333334 23.701523 17.631812 24 18 24H20.666668C22.507616 24 24 22.507616 24 20.666666V18C24 17.63181 23.701525 17.333333 23.333334 17.333333 22.965146 17.333333 22.666668 17.63181 22.666668 18V20.666666C22.666668 21.771237 21.771237 22.666666 20.666668 22.666666H18ZM22.666668 6C22.666668 6.368189 22.965146 6.666666 23.333334 6.666666 23.701525 6.666666 24 6.368189 24 6V3.333332C24 1.492384 22.507616 0 20.666668 0H18C17.631812 0 17.333334 .298475 17.333334 .666666 17.333334 1.034855 17.631812 1.333332 18 1.333332H20.666668C21.771237 1.333332 22.666668 2.228764 22.666668 3.333332V6ZM0 6C0 6.368189 .298477 6.666666 .666667 6.666666 1.034857 6.666666 1.333333 6.368189 1.333333 6V3.333332C1.333333 2.228764 2.228764 1.333332 3.333333 1.333332H6C6.36819 1.333332 6.666667 1.034855 6.666667 .666666 6.666667 .298475 6.36819 0 6 0H3.333333C1.492384 0 0 1.492384 0 3.333332V6ZM6.666667 16.666666C6.666667 17.034857 6.965144 17.333333 7.333333 17.333333 7.701523 17.333333 8 17.034857 8 16.666666V15.333333C8 14.965143 7.701523 14.666666 7.333333 14.666666 6.965144 14.666666 6.666667 14.965143 6.666667 15.333333V16.666666ZM17.333334 16.666666C17.333334 17.034857 17.631812 17.333333 18 17.333333 18.36819 17.333333 18.666668 17.034857 18.666668 16.666666V15.333333C18.666668 14.965143 18.36819 14.666666 18 14.666666 17.631812 14.666666 17.333334 14.965143 17.333334 15.333333V16.666666ZM12 16.666666C12 17.034857 12.298477 17.333333 12.666667 17.333333 13.034857 17.333333 13.333334 17.034857 13.333334 16.666666V11.333333C13.333334 10.228764 12.437903 9.333333 11.333334 9.333333 10.965144 9.333333 10.666667 9.63181 10.666667 10 10.666667 10.36819 10.965144 10.666666 11.333334 10.666666 11.701524 10.666666 12 10.965143 12 11.333333V16.666666ZM6.800001 6.933332C6.579087 7.227884 6.638782 7.645752 6.933333 7.866665 7.227885 8.08758 7.645752 8.027885 7.866666 7.733334 9.08129 6.113834 10.447168 5.333332 12 5.333332 13.552832 5.333332 14.918711 6.113834 16.133336 7.733334 16.354249 8.027885 16.772116 8.08758 17.066668 7.866665 17.36122 7.645752 17.420914 7.227884 17.2 6.933332 15.747957 4.997274 14.002725 4 12 4 9.997276 4 8.252044 4.997274 6.800001 6.933332Z" fill="#2a333d"/>
<path transform="matrix(1,0,0,-1,4,29)" d="M6.800001 7.933332 7.200001 8.233332 6.800001 7.933332ZM6.933333 8.866665 7.233333 8.466665 6.933333 8.866665ZM7.866666 8.733334 7.466666 8.433332 7.866666 8.733334ZM16.133336 8.733334 16.533335 8.433332 16.133336 8.733334ZM17.066668 8.866665 16.766669 8.466665 17.066668 8.866665ZM17.2 7.933332 17.6 7.633333 17.2 7.933332ZM6 24.5C6.092048 24.5 6.166667 24.42538 6.166667 24.333334H7.166667C7.166667 24.977665 6.644332 25.5 6 25.5V24.5ZM6.166667 24.333334C6.166667 24.241286 6.092048 24.166666 6 24.166666V23.166666C6.644332 23.166666 7.166667 23.689002 7.166667 24.333334H6.166667ZM6 24.166666H3.333333V23.166666H6V24.166666ZM3.333333 24.166666C1.952621 24.166666 .833333 23.047379 .833333 21.666666H1.833333C1.833333 22.495095 2.504906 23.166666 3.333333 23.166666V24.166666ZM.833333 21.666666V18.958495H1.833333V21.666666H.833333ZM.833333 18.958495C.833333 18.866448 .758714 18.791829 .666667 18.791829V17.791829C1.310999 17.791829 1.833333 18.314164 1.833333 18.958495H.833333ZM.666667 18.791829C.574619 18.791829 .5 18.866448 .5 18.958495H-.5C-.5 18.314164 .022335 17.791829 .666667 17.791829V18.791829ZM.5 18.958495V21.666666H-.5V18.958495H.5ZM.5 21.666666C.5 23.231474 1.768527 24.5 3.333333 24.5V25.5C1.216242 25.5-.5 23.783759-.5 21.666666H.5ZM3.333333 24.5H6V25.5H3.333333V24.5ZM18 24.166666C17.907954 24.166666 17.833334 24.241286 17.833334 24.333334H16.833334C16.833334 23.689002 17.355669 23.166666 18 23.166666V24.166666ZM17.833334 24.333334C17.833334 24.42538 17.907954 24.5 18 24.5V25.5C17.355669 25.5 16.833334 24.977665 16.833334 24.333334H17.833334ZM18 24.5H20.666668V25.5H18V24.5ZM20.666668 24.5C22.231474 24.5 23.5 23.231474 23.5 21.666666H24.5C24.5 23.783759 22.783759 25.5 20.666668 25.5V24.5ZM23.5 21.666666V19H24.5V21.666666H23.5ZM23.5 19C23.5 18.907952 23.42538 18.833333 23.333334 18.833333V17.833333C23.977667 17.833333 24.5 18.355668 24.5 19H23.5ZM23.333334 18.833333C23.241288 18.833333 23.166668 18.907952 23.166668 19H22.166668C22.166668 18.355668 22.689002 17.833333 23.333334 17.833333V18.833333ZM23.166668 19V21.666666H22.166668V19H23.166668ZM23.166668 21.666666C23.166668 23.047379 22.047379 24.166666 20.666668 24.166666V23.166666C21.495095 23.166666 22.166668 22.495095 22.166668 21.666666H23.166668ZM20.666668 24.166666H18V23.166666H20.666668V24.166666ZM23.166668 7C23.166668 7.092047 23.241288 7.166666 23.333334 7.166666V8.166666C22.689002 8.166666 22.166668 7.644331 22.166668 7H23.166668ZM23.333334 7.166666C23.42538 7.166666 23.5 7.092047 23.5 7H24.5C24.5 7.644331 23.977667 8.166666 23.333334 8.166666V7.166666ZM23.5 7V4.333332H24.5V7H23.5ZM23.5 4.333332C23.5 2.768526 22.231474 1.5 20.666668 1.5V.5C22.783759 .5 24.5 2.216242 24.5 4.333332H23.5ZM20.666668 1.5H18V.5H20.666668V1.5ZM18 1.5C17.907954 1.5 17.833334 1.574619 17.833334 1.666666H16.833334C16.833334 1.022333 17.355669 .5 18 .5V1.5ZM17.833334 1.666666C17.833334 1.758713 17.907954 1.833332 18 1.833332V2.833332C17.355669 2.833332 16.833334 2.310999 16.833334 1.666666H17.833334ZM18 1.833332H20.666668V2.833332H18V1.833332ZM20.666668 1.833332C22.047379 1.833332 23.166668 2.952621 23.166668 4.333332H22.166668C22.166668 3.504906 21.495095 2.833332 20.666668 2.833332V1.833332ZM23.166668 4.333332V7H22.166668V4.333332H23.166668ZM.5 7C.5 7.092047 .574619 7.166666 .666667 7.166666V8.166666C.022335 8.166666-.5 7.644331-.5 7H.5ZM.666667 7.166666C.758714 7.166666 .833333 7.092047 .833333 7H1.833333C1.833333 7.644331 1.310999 8.166666 .666667 8.166666V7.166666ZM.833333 7V4.333332H1.833333V7H.833333ZM.833333 4.333332C.833333 2.952621 1.952621 1.833332 3.333333 1.833332V2.833332C2.504906 2.833332 1.833333 3.504906 1.833333 4.333332H.833333ZM3.333333 1.833332H6V2.833332H3.333333V1.833332ZM6 1.833332C6.092048 1.833332 6.166667 1.758713 6.166667 1.666666H7.166667C7.166667 2.310999 6.644332 2.833332 6 2.833332V1.833332ZM6.166667 1.666666C6.166667 1.574619 6.092048 1.5 6 1.5V.5C6.644332 .5 7.166667 1.022333 7.166667 1.666666H6.166667ZM6 1.5H3.333333V.5H6V1.5ZM3.333333 1.5C1.768527 1.5 .5 2.768526 .5 4.333332H-.5C-.5 2.216242 1.216242 .5 3.333333 .5V1.5ZM.5 4.333332V7H-.5V4.333332H.5ZM7.166667 17.666666C7.166667 17.758713 7.241286 17.833333 7.333333 17.833333V18.833333C6.689002 18.833333 6.166667 18.310999 6.166667 17.666666H7.166667ZM7.333333 17.833333C7.425381 17.833333 7.5 17.758713 7.5 17.666666H8.5C8.5 18.310999 7.977666 18.833333 7.333333 18.833333V17.833333ZM7.5 17.666666V16.333333H8.5V17.666666H7.5ZM7.5 16.333333C7.5 16.241286 7.425381 16.166666 7.333333 16.166666V15.166666C7.977666 15.166666 8.5 15.689001 8.5 16.333333H7.5ZM7.333333 16.166666C7.241286 16.166666 7.166667 16.241286 7.166667 16.333333H6.166667C6.166667 15.689001 6.689002 15.166666 7.333333 15.166666V16.166666ZM7.166667 16.333333V17.666666H6.166667V16.333333H7.166667ZM17.833334 17.666666C17.833334 17.758713 17.907954 17.833333 18 17.833333V18.833333C17.355669 18.833333 16.833334 18.310999 16.833334 17.666666H17.833334ZM18 17.833333C18.092049 17.833333 18.166668 17.758713 18.166668 17.666666H19.166668C19.166668 18.310999 18.644333 18.833333 18 18.833333V17.833333ZM18.166668 17.666666V16.333333H19.166668V17.666666H18.166668ZM18.166668 16.333333C18.166668 16.241286 18.092049 16.166666 18 16.166666V15.166666C18.644333 15.166666 19.166668 15.689001 19.166668 16.333333H18.166668ZM18 16.166666C17.907954 16.166666 17.833334 16.241286 17.833334 16.333333H16.833334C16.833334 15.689001 17.355669 15.166666 18 15.166666V16.166666ZM17.833334 16.333333V17.666666H16.833334V16.333333H17.833334ZM12.5 17.666666C12.5 17.758713 12.574619 17.833333 12.666667 17.833333V18.833333C12.022335 18.833333 11.5 18.310999 11.5 17.666666H12.5ZM12.666667 17.833333C12.758715 17.833333 12.833334 17.758713 12.833334 17.666666H13.833334C13.833334 18.310999 13.310999 18.833333 12.666667 18.833333V17.833333ZM12.833334 17.666666V12.333333H13.833334V17.666666H12.833334ZM12.833334 12.333333C12.833334 11.504906 12.16176 10.833333 11.333334 10.833333V9.833333C12.714046 9.833333 13.833334 10.952621 13.833334 12.333333H12.833334ZM11.333334 10.833333C11.241286 10.833333 11.166667 10.907952 11.166667 11H10.166667C10.166667 10.355667 10.689001 9.833333 11.333334 9.833333V10.833333ZM11.166667 11C11.166667 11.092047 11.241286 11.166666 11.333334 11.166666V12.166666C10.689001 12.166666 10.166667 11.644332 10.166667 11H11.166667ZM11.333334 11.166666C11.977666 11.166666 12.5 11.689001 12.5 12.333333H11.5C11.5 12.241285 11.425381 12.166666 11.333334 12.166666V11.166666ZM12.5 12.333333V17.666666H11.5V12.333333H12.5ZM7.200001 8.233332C7.144772 8.306971 7.159696 8.411438 7.233333 8.466665L6.633333 9.266665C6.117867 8.880066 6.013402 8.148798 6.400001 7.633333L7.200001 8.233332ZM7.233333 8.466665C7.306972 8.521894 7.411438 8.506969 7.466666 8.433332L8.266666 9.033333C7.880066 9.5488 7.148798 9.653264 6.633333 9.266665L7.233333 8.466665ZM7.466666 8.433332C8.746939 6.726303 10.247316 5.833332 12 5.833332V6.833332C10.64702 6.833332 9.415642 7.501366 8.266666 9.033333L7.466666 8.433332ZM12 5.833332C13.752684 5.833332 15.253062 6.726303 16.533335 8.433332L15.733335 9.033333C14.584359 7.501366 13.352981 6.833332 12 6.833332V5.833332ZM16.533335 8.433332C16.588562 8.506969 16.69303 8.521894 16.766669 8.466665L17.366667 9.266665C16.851202 9.653264 16.119935 9.5488 15.733335 9.033333L16.533335 8.433332ZM16.766669 8.466665C16.840306 8.411438 16.855229 8.306971 16.8 8.233332L17.6 7.633333C17.986599 8.148798 17.882134 8.880066 17.366667 9.266665L16.766669 8.466665ZM16.8 8.233332C15.418249 6.390997 13.809051 5.5 12 5.5V4.5C14.196398 4.5 16.077666 5.603552 17.6 7.633333L16.8 8.233332ZM12 5.5C10.190949 5.5 8.581752 6.390997 7.200001 8.233332L6.400001 7.633333C7.922336 5.603552 9.803603 4.5 12 4.5V5.5Z" fill="#2a333d"/>
</svg>
